<?xml version="1.0" encoding="UTF-8" standalone="no"?>
<svg
   xmlns:dc="http://purl.org/dc/elements/1.1/"
   xmlns:cc="http://creativecommons.org/ns#"
   xmlns:rdf="http://www.w3.org/1999/02/22-rdf-syntax-ns#"
   xmlns:svg="http://www.w3.org/2000/svg"
   xmlns="http://www.w3.org/2000/svg"
   viewBox="0 0 576 480"
   height="480"
   width="576"
   xml:space="preserve"
   id="svg2"
   version="1.1"><metadata
     id="metadata8"><rdf:RDF><cc:Work
         rdf:about=""><dc:format>image/svg+xml</dc:format><dc:type
           rdf:resource="http://purl.org/dc/dcmitype/StillImage" /></cc:Work></rdf:RDF></metadata><defs
     id="defs6"><clipPath
       id="clipPath22"
       clipPathUnits="userSpaceOnUse"><path
         id="path20"
         d="M 47.894,40.46 H 417.86529 V 347.04 H 47.894 Z" /></clipPath><clipPath
       id="clipPath40"
       clipPathUnits="userSpaceOnUse"><path
         id="path38"
         d="M 47.894,40.46 H 417.86529 V 347.04 H 47.894 Z" /></clipPath><clipPath
       id="clipPath58"
       clipPathUnits="userSpaceOnUse"><path
         id="path56"
         d="M 47.894,40.46 H 417.86529 V 347.04 H 47.894 Z" /></clipPath><clipPath
       id="clipPath76"
       clipPathUnits="userSpaceOnUse"><path
         id="path74"
         d="M 47.894,40.46 H 417.86529 V 347.04 H 47.894 Z" /></clipPath><clipPath
       id="clipPath94"
       clipPathUnits="userSpaceOnUse"><path
         id="path92"
         d="M 47.894,40.46 H 417.86529 V 347.04 H 47.894 Z" /></clipPath><clipPath
       id="clipPath112"
       clipPathUnits="userSpaceOnUse"><path
         id="path110"
         d="M 47.894,40.46 H 417.86529 V 347.04 H 47.894 Z" /></clipPath><clipPath
       id="clipPath130"
       clipPathUnits="userSpaceOnUse"><path
         id="path128"
         d="M 47.894,40.46 H 417.86529 V 347.04 H 47.894 Z" /></clipPath><clipPath
       id="clipPath148"
       clipPathUnits="userSpaceOnUse"><path
         id="path146"
         d="M 47.894,40.46 H 417.86529 V 347.04 H 47.894 Z" /></clipPath><clipPath
       id="clipPath166"
       clipPathUnits="userSpaceOnUse"><path
         id="path164"
         d="M 47.894,40.46 H 417.86529 V 347.04 H 47.894 Z" /></clipPath><clipPath
       id="clipPath184"
       clipPathUnits="userSpaceOnUse"><path
         id="path182"
         d="M 47.894,40.46 H 417.86529 V 347.04 H 47.894 Z" /></clipPath><clipPath
       id="clipPath202"
       clipPathUnits="userSpaceOnUse"><path
         id="path200"
         d="M 47.894,40.46 H 417.86529 V 347.04 H 47.894 Z" /></clipPath><clipPath
       id="clipPath220"
       clipPathUnits="userSpaceOnUse"><path
         id="path218"
         d="M 47.894,40.46 H 417.86529 V 347.04 H 47.894 Z" /></clipPath><clipPath
       id="clipPath238"
       clipPathUnits="userSpaceOnUse"><path
         id="path236"
         d="M 47.894,40.46 H 417.86529 V 347.04 H 47.894 Z" /></clipPath><clipPath
       id="clipPath248"
       clipPathUnits="userSpaceOnUse"><path
         id="path246"
         d="M -9.1833001,-9.1833001 H 9.1833001 V 9.1833001 H -9.1833001 Z" /></clipPath><clipPath
       id="clipPath260"
       clipPathUnits="userSpaceOnUse"><path
         id="path258"
         d="M -9.1833001,-9.1833001 H 9.1833001 V 9.1833001 H -9.1833001 Z" /></clipPath><clipPath
       id="clipPath272"
       clipPathUnits="userSpaceOnUse"><path
         id="path270"
         d="M -9.1833001,-9.1833001 H 9.1833001 V 9.1833001 H -9.1833001 Z" /></clipPath><clipPath
       id="clipPath284"
       clipPathUnits="userSpaceOnUse"><path
         id="path282"
         d="M -9.1833001,-9.1833001 H 9.1833001 V 9.1833001 H -9.1833001 Z" /></clipPath><clipPath
       id="clipPath296"
       clipPathUnits="userSpaceOnUse"><path
         id="path294"
         d="M -9.1833001,-9.1833001 H 9.1833001 V 9.1833001 H -9.1833001 Z" /></clipPath></defs><g
     transform="matrix(1.3333333,0,0,-1.3333333,0,480)"
     id="g10"><path
       id="path12"
       style="fill:#ffffff;fill-opacity:1;fill-rule:nonzero;stroke:none"
       d="M 0,0 H 432 V 360 H 0 Z" /><path
       id="path14"
       style="fill:#eaeaf2;fill-opacity:1;fill-rule:nonzero;stroke:none"
       d="M 47.894,40.46 H 417.86529 V 347.04 H 47.894 Z" /><g
       id="g16"><g
         clip-path="url(#clipPath22)"
         id="g18"><path
           id="path24"
           style="fill:none;stroke:#ffffff;stroke-width:1;stroke-linecap:round;stroke-linejoin:round;stroke-miterlimit:10;stroke-dasharray:none;stroke-opacity:1"
           d="M 54.384724,40.46 V 347.04" /></g></g><g
       id="g26"><g
         transform="translate(46.431599,23.36625)"
         id="g28"><text
           id="text32"
           style="font-variant:normal;font-weight:normal;font-size:10px;font-family:'DejaVu Sans';-inkscape-font-specification:DejaVuSans;writing-mode:lr-tb;fill:#262626;fill-opacity:1;fill-rule:nonzero;stroke:none"
           transform="scale(1,-1)"><tspan
             id="tspan30"
             y="0"
             x="0 6.3600001 9.54">0.0</tspan></text>
</g></g><g
       id="g34"><g
         clip-path="url(#clipPath40)"
         id="g36"><path
           id="path42"
           style="fill:none;stroke:#ffffff;stroke-width:1;stroke-linecap:round;stroke-linejoin:round;stroke-miterlimit:10;stroke-dasharray:none;stroke-opacity:1"
           d="M 119.29197,40.46 V 347.04" /></g></g><g
       id="g44"><g
         transform="translate(111.33884,23.36625)"
         id="g46"><text
           id="text50"
           style="font-variant:normal;font-weight:normal;font-size:10px;font-family:'DejaVu Sans';-inkscape-font-specification:DejaVuSans;writing-mode:lr-tb;fill:#262626;fill-opacity:1;fill-rule:nonzero;stroke:none"
           transform="scale(1,-1)"><tspan
             id="tspan48"
             y="0"
             x="0 6.3600001 9.54">0.2</tspan></text>
</g></g><g
       id="g52"><g
         clip-path="url(#clipPath58)"
         id="g54"><path
           id="path60"
           style="fill:none;stroke:#ffffff;stroke-width:1;stroke-linecap:round;stroke-linejoin:round;stroke-miterlimit:10;stroke-dasharray:none;stroke-opacity:1"
           d="M 184.19921,40.46 V 347.04" /></g></g><g
       id="g62"><g
         transform="translate(176.24609,23.36625)"
         id="g64"><text
           id="text68"
           style="font-variant:normal;font-weight:normal;font-size:10px;font-family:'DejaVu Sans';-inkscape-font-specification:DejaVuSans;writing-mode:lr-tb;fill:#262626;fill-opacity:1;fill-rule:nonzero;stroke:none"
           transform="scale(1,-1)"><tspan
             id="tspan66"
             y="0"
             x="0 6.3600001 9.54">0.4</tspan></text>
</g></g><g
       id="g70"><g
         clip-path="url(#clipPath76)"
         id="g72"><path
           id="path78"
           style="fill:none;stroke:#ffffff;stroke-width:1;stroke-linecap:round;stroke-linejoin:round;stroke-miterlimit:10;stroke-dasharray:none;stroke-opacity:1"
           d="M 249.10646,40.46 V 347.04" /></g></g><g
       id="g80"><g
         transform="translate(241.15333,23.36625)"
         id="g82"><text
           id="text86"
           style="font-variant:normal;font-weight:normal;font-size:10px;font-family:'DejaVu Sans';-inkscape-font-specification:DejaVuSans;writing-mode:lr-tb;fill:#262626;fill-opacity:1;fill-rule:nonzero;stroke:none"
           transform="scale(1,-1)"><tspan
             id="tspan84"
             y="0"
             x="0 6.3600001 9.54">0.6</tspan></text>
</g></g><g
       id="g88"><g
         clip-path="url(#clipPath94)"
         id="g90"><path
           id="path96"
           style="fill:none;stroke:#ffffff;stroke-width:1;stroke-linecap:round;stroke-linejoin:round;stroke-miterlimit:10;stroke-dasharray:none;stroke-opacity:1"
           d="M 314.0137,40.46 V 347.04" /></g></g><g
       id="g98"><g
         transform="translate(306.06058,23.36625)"
         id="g100"><text
           id="text104"
           style="font-variant:normal;font-weight:normal;font-size:10px;font-family:'DejaVu Sans';-inkscape-font-specification:DejaVuSans;writing-mode:lr-tb;fill:#262626;fill-opacity:1;fill-rule:nonzero;stroke:none"
           transform="scale(1,-1)"><tspan
             id="tspan102"
             y="0"
             x="0 6.3600001 9.54">0.8</tspan></text>
</g></g><g
       id="g106"><g
         clip-path="url(#clipPath112)"
         id="g108"><path
           id="path114"
           style="fill:none;stroke:#ffffff;stroke-width:1;stroke-linecap:round;stroke-linejoin:round;stroke-miterlimit:10;stroke-dasharray:none;stroke-opacity:1"
           d="M 378.92094,40.46 V 347.04" /></g></g><g
       id="g116"><g
         transform="translate(370.96782,23.36625)"
         id="g118"><text
           id="text122"
           style="font-variant:normal;font-weight:normal;font-size:10px;font-family:'DejaVu Sans';-inkscape-font-specification:DejaVuSans;writing-mode:lr-tb;fill:#262626;fill-opacity:1;fill-rule:nonzero;stroke:none"
           transform="scale(1,-1)"><tspan
             id="tspan120"
             y="0"
             x="0 6.3600001 9.54">1.0</tspan></text>
</g></g><g
       id="g124"><g
         clip-path="url(#clipPath130)"
         id="g126"><path
           id="path132"
           style="fill:none;stroke:#ffffff;stroke-width:1;stroke-linecap:round;stroke-linejoin:round;stroke-miterlimit:10;stroke-dasharray:none;stroke-opacity:1"
           d="M 47.894,46.355769 H 417.86529" /></g></g><g
       id="g134"><g
         transform="translate(22.48775,42.558894)"
         id="g136"><text
           id="text140"
           style="font-variant:normal;font-weight:normal;font-size:10px;font-family:'DejaVu Sans';-inkscape-font-specification:DejaVuSans;writing-mode:lr-tb;fill:#262626;fill-opacity:1;fill-rule:nonzero;stroke:none"
           transform="scale(1,-1)"><tspan
             id="tspan138"
             y="0"
             x="0 6.3600001 9.54">0.0</tspan></text>
</g></g><g
       id="g142"><g
         clip-path="url(#clipPath148)"
         id="g144"><path
           id="path150"
           style="fill:none;stroke:#ffffff;stroke-width:1;stroke-linecap:round;stroke-linejoin:round;stroke-miterlimit:10;stroke-dasharray:none;stroke-opacity:1"
           d="M 47.894,105.31346 H 417.86529" /></g></g><g
       id="g152"><g
         transform="translate(22.48775,101.51659)"
         id="g154"><text
           id="text158"
           style="font-variant:normal;font-weight:normal;font-size:10px;font-family:'DejaVu Sans';-inkscape-font-specification:DejaVuSans;writing-mode:lr-tb;fill:#262626;fill-opacity:1;fill-rule:nonzero;stroke:none"
           transform="scale(1,-1)"><tspan
             id="tspan156"
             y="0"
             x="0 6.3600001 9.54">0.2</tspan></text>
</g></g><g
       id="g160"><g
         clip-path="url(#clipPath166)"
         id="g162"><path
           id="path168"
           style="fill:none;stroke:#ffffff;stroke-width:1;stroke-linecap:round;stroke-linejoin:round;stroke-miterlimit:10;stroke-dasharray:none;stroke-opacity:1"
           d="M 47.894,164.27115 H 417.86529" /></g></g><g
       id="g170"><g
         transform="translate(22.48775,160.47428)"
         id="g172"><text
           id="text176"
           style="font-variant:normal;font-weight:normal;font-size:10px;font-family:'DejaVu Sans';-inkscape-font-specification:DejaVuSans;writing-mode:lr-tb;fill:#262626;fill-opacity:1;fill-rule:nonzero;stroke:none"
           transform="scale(1,-1)"><tspan
             id="tspan174"
             y="0"
             x="0 6.3600001 9.54">0.4</tspan></text>
</g></g><g
       id="g178"><g
         clip-path="url(#clipPath184)"
         id="g180"><path
           id="path186"
           style="fill:none;stroke:#ffffff;stroke-width:1;stroke-linecap:round;stroke-linejoin:round;stroke-miterlimit:10;stroke-dasharray:none;stroke-opacity:1"
           d="M 47.894,223.22885 H 417.86529" /></g></g><g
       id="g188"><g
         transform="translate(22.48775,219.43197)"
         id="g190"><text
           id="text194"
           style="font-variant:normal;font-weight:normal;font-size:10px;font-family:'DejaVu Sans';-inkscape-font-specification:DejaVuSans;writing-mode:lr-tb;fill:#262626;fill-opacity:1;fill-rule:nonzero;stroke:none"
           transform="scale(1,-1)"><tspan
             id="tspan192"
             y="0"
             x="0 6.3600001 9.54">0.6</tspan></text>
</g></g><g
       id="g196"><g
         clip-path="url(#clipPath202)"
         id="g198"><path
           id="path204"
           style="fill:none;stroke:#ffffff;stroke-width:1;stroke-linecap:round;stroke-linejoin:round;stroke-miterlimit:10;stroke-dasharray:none;stroke-opacity:1"
           d="M 47.894,282.18654 H 417.86529" /></g></g><g
       id="g206"><g
         transform="translate(22.48775,278.38966)"
         id="g208"><text
           id="text212"
           style="font-variant:normal;font-weight:normal;font-size:10px;font-family:'DejaVu Sans';-inkscape-font-specification:DejaVuSans;writing-mode:lr-tb;fill:#262626;fill-opacity:1;fill-rule:nonzero;stroke:none"
           transform="scale(1,-1)"><tspan
             id="tspan210"
             y="0"
             x="0 6.3600001 9.54">0.8</tspan></text>
</g></g><g
       id="g214"><g
         clip-path="url(#clipPath220)"
         id="g216"><path
           id="path222"
           style="fill:none;stroke:#ffffff;stroke-width:1;stroke-linecap:round;stroke-linejoin:round;stroke-miterlimit:10;stroke-dasharray:none;stroke-opacity:1"
           d="M 47.894,341.14423 H 417.86529" /></g></g><g
       id="g224"><g
         transform="translate(22.48775,337.34736)"
         id="g226"><text
           id="text230"
           style="font-variant:normal;font-weight:normal;font-size:10px;font-family:'DejaVu Sans';-inkscape-font-specification:DejaVuSans;writing-mode:lr-tb;fill:#262626;fill-opacity:1;fill-rule:nonzero;stroke:none"
           transform="scale(1,-1)"><tspan
             id="tspan228"
             y="0"
             x="0 6.3600001 9.54">1.0</tspan></text>
</g></g><g
       id="g232"><g
         clip-path="url(#clipPath238)"
         id="g234"><g
           transform="translate(132.6844,46.355769)"
           id="g240"><g
             id="g242"><g
               clip-path="url(#clipPath248)"
               id="g244"><path
                 id="path250"
                 style="fill:#4c72b0;fill-opacity:1;fill-rule:nonzero;stroke:#4c72b0;stroke-width:1;stroke-linecap:butt;stroke-linejoin:round;stroke-miterlimit:10;stroke-dasharray:none;stroke-opacity:1"
                 d="m 0,-4.1833 c 1.109424,0 2.173559,0.440779 2.95804,1.22526 C 3.742521,-2.173559 4.1833,-1.109424 4.1833,0 4.1833,1.109424 3.742521,2.173559 2.95804,2.95804 2.173559,3.742521 1.109424,4.1833 0,4.1833 -1.109424,4.1833 -2.173559,3.742521 -2.95804,2.95804 -3.742521,2.173559 -4.1833,1.109424 -4.1833,0 c 0,-1.109424 0.440779,-2.173559 1.22526,-2.95804 C -2.173559,-3.742521 -1.109424,-4.1833 0,-4.1833 Z" /></g></g><g
             transform="translate(-8.6920909,238.54129)"
             id="g252"><g
               id="g254"><g
                 clip-path="url(#clipPath260)"
                 id="g256"><path
                   id="path262"
                   style="fill:#4c72b0;fill-opacity:1;fill-rule:nonzero;stroke:#4c72b0;stroke-width:1;stroke-linecap:butt;stroke-linejoin:round;stroke-miterlimit:10;stroke-dasharray:none;stroke-opacity:1"
                   d="m 0,-4.1833 c 1.109424,0 2.173559,0.440779 2.95804,1.22526 C 3.742521,-2.173559 4.1833,-1.109424 4.1833,0 4.1833,1.109424 3.742521,2.173559 2.95804,2.95804 2.173559,3.742521 1.109424,4.1833 0,4.1833 -1.109424,4.1833 -2.173559,3.742521 -2.95804,2.95804 -3.742521,2.173559 -4.1833,1.109424 -4.1833,0 c 0,-1.109424 0.440779,-2.173559 1.22526,-2.95804 C -2.173559,-3.742521 -1.109424,-4.1833 0,-4.1833 Z" /></g></g><g
               transform="translate(55.435699,-169.01084)"
               id="g264"><g
                 id="g266"><g
                   clip-path="url(#clipPath272)"
                   id="g268"><path
                     id="path274"
                     style="fill:#4c72b0;fill-opacity:1;fill-rule:nonzero;stroke:#4c72b0;stroke-width:1;stroke-linecap:butt;stroke-linejoin:round;stroke-miterlimit:10;stroke-dasharray:none;stroke-opacity:1"
                     d="m 0,-4.1833 c 1.109424,0 2.173559,0.440779 2.95804,1.22526 C 3.742521,-2.173559 4.1833,-1.109424 4.1833,0 4.1833,1.109424 3.742521,2.173559 2.95804,2.95804 2.173559,3.742521 1.109424,4.1833 0,4.1833 -1.109424,4.1833 -2.173559,3.742521 -2.95804,2.95804 -3.742521,2.173559 -4.1833,1.109424 -4.1833,0 c 0,-1.109424 0.440779,-2.173559 1.22526,-2.95804 C -2.173559,-3.742521 -1.109424,-4.1833 0,-4.1833 Z" /></g></g><g
                 transform="translate(199.49293,49.047044)"
                 id="g276"><g
                   id="g278"><g
                     clip-path="url(#clipPath284)"
                     id="g280"><path
                       id="path286"
                       style="fill:#4c72b0;fill-opacity:1;fill-rule:nonzero;stroke:#4c72b0;stroke-width:1;stroke-linecap:butt;stroke-linejoin:round;stroke-miterlimit:10;stroke-dasharray:none;stroke-opacity:1"
                       d="m 0,-4.1833 c 1.109424,0 2.173559,0.440779 2.95804,1.22526 C 3.742521,-2.173559 4.1833,-1.109424 4.1833,0 4.1833,1.109424 3.742521,2.173559 2.95804,2.95804 2.173559,3.742521 1.109424,4.1833 0,4.1833 -1.109424,4.1833 -2.173559,3.742521 -2.95804,2.95804 -3.742521,2.173559 -4.1833,1.109424 -4.1833,0 c 0,-1.109424 0.440779,-2.173559 1.22526,-2.95804 C -2.173559,-3.742521 -1.109424,-4.1833 0,-4.1833 Z" /></g></g><g
                   transform="translate(21.942806,10.467832)"
                   id="g288"><g
                     id="g290"><g
                       clip-path="url(#clipPath296)"
                       id="g292"><path
                         id="path298"
                         style="fill:#4c72b0;fill-opacity:1;fill-rule:nonzero;stroke:#4c72b0;stroke-width:1;stroke-linecap:butt;stroke-linejoin:round;stroke-miterlimit:10;stroke-dasharray:none;stroke-opacity:1"
                         d="m 0,-4.1833 c 1.109424,0 2.173559,0.440779 2.95804,1.22526 C 3.742521,-2.173559 4.1833,-1.109424 4.1833,0 4.1833,1.109424 3.742521,2.173559 2.95804,2.95804 2.173559,3.742521 1.109424,4.1833 0,4.1833 -1.109424,4.1833 -2.173559,3.742521 -2.95804,2.95804 -3.742521,2.173559 -4.1833,1.109424 -4.1833,0 c 0,-1.109424 0.440779,-2.173559 1.22526,-2.95804 C -2.173559,-3.742521 -1.109424,-4.1833 0,-4.1833 Z" /></g></g></g></g></g></g></g></g></g><g
       id="g300"><path
         id="path302"
         style="fill:none;stroke:#ffffff;stroke-width:1.25;stroke-linecap:square;stroke-linejoin:miter;stroke-miterlimit:10;stroke-dasharray:none;stroke-opacity:1"
         d="M 47.894,40.46 V 347.04" /><path
         id="path304"
         style="fill:none;stroke:#ffffff;stroke-width:1.25;stroke-linecap:square;stroke-linejoin:miter;stroke-miterlimit:10;stroke-dasharray:none;stroke-opacity:1"
         d="M 417.86529,40.46 V 347.04" /><path
         id="path306"
         style="fill:none;stroke:#ffffff;stroke-width:1.25;stroke-linecap:square;stroke-linejoin:miter;stroke-miterlimit:10;stroke-dasharray:none;stroke-opacity:1"
         d="M 47.894,40.46 H 417.86529" /><path
         id="path308"
         style="fill:none;stroke:#ffffff;stroke-width:1.25;stroke-linecap:square;stroke-linejoin:miter;stroke-miterlimit:10;stroke-dasharray:none;stroke-opacity:1"
         d="M 47.894,347.04 H 417.86529" /><g
         transform="translate(107.82503,55.635904)"
         id="g310"><text
           id="text314"
           style="font-variant:normal;font-weight:normal;font-size:12px;font-family:'DejaVu Sans';-inkscape-font-specification:DejaVuSans;writing-mode:lr-tb;fill:#262626;fill-opacity:1;fill-rule:nonzero;stroke:none"
           transform="scale(1,-1)"><tspan
             id="tspan312"
             y="0"
             x="0 8.0900002 15.446 23.054001 30.674 38.018002">Random</tspan></text>
</g><g
         transform="translate(104.32044,294.17719)"
         id="g316"><text
           id="text320"
           style="font-variant:normal;font-weight:normal;font-size:12px;font-family:'DejaVu Sans';-inkscape-font-specification:DejaVuSans;writing-mode:lr-tb;fill:#262626;fill-opacity:1;fill-rule:nonzero;stroke:none"
           transform="scale(1,-1)"><tspan
             id="tspan318"
             y="0"
             x="0 7.5840001 14.688 22.308001 29.688 34.619999">Expert</tspan></text>
</g><g
         transform="translate(161.70926,125.16635)"
         id="g322"><text
           id="text326"
           style="font-variant:normal;font-weight:normal;font-size:12px;font-family:'DejaVu Sans';-inkscape-font-specification:DejaVuSans;writing-mode:lr-tb;fill:#262626;fill-opacity:1;fill-rule:nonzero;stroke:none"
           transform="scale(1,-1)"><tspan
             id="tspan324"
             y="0"
             x="0 10.356 13.692 20.436625 27.816626">Mixed</tspan></text>
</g><g
         transform="translate(354.78032,174.2134)"
         id="g328"><text
           id="text332"
           style="font-variant:normal;font-weight:normal;font-size:12px;font-family:'DejaVu Sans';-inkscape-font-specification:DejaVuSans;writing-mode:lr-tb;fill:#262626;fill-opacity:1;fill-rule:nonzero;stroke:none"
           transform="scale(1,-1)"><tspan
             id="tspan330"
             y="0"
             x="0 7.8087502 15.18875 22.80875 26.144751 33.500751 40.604752">Replay </tspan></text>
</g><g
         transform="translate(384.35594,184.68123)"
         id="g334"><text
           id="text338"
           style="font-variant:normal;font-weight:normal;font-size:12px;font-family:'DejaVu Sans';-inkscape-font-specification:DejaVuSans;writing-mode:lr-tb;fill:#262626;fill-opacity:1;fill-rule:nonzero;stroke:none"
           transform="scale(1,-1)"><tspan
             id="tspan336"
             y="0"
             x="0 8.9759998 16.32 19.656 25.908001">Noisy</tspan></text>
</g><g
         transform="translate(157.39062,3.6)"
         id="g340"><text
           id="text344"
           style="font-variant:normal;font-weight:normal;font-size:14.39999962px;font-family:'DejaVu Sans';-inkscape-font-specification:DejaVuSans;writing-mode:lr-tb;fill:#262626;fill-opacity:1;fill-rule:nonzero;stroke:none"
           transform="scale(1,-1)"><tspan
             id="tspan342"
             y="0"
             x="0 9.4096251 19.009226 29.060425 37.873226 42.452423 51.265224 56.334026 60.913223 72.001228 80.828423 86.473228 95.300423 102.80283 111.65883">SACo of Dataset</tspan></text>
</g><g
         transform="rotate(90,-58.57625,71.67375)"
         id="g346"><text
           id="text350"
           style="font-variant:normal;font-weight:normal;font-size:14.39999962px;font-family:'DejaVu Sans';-inkscape-font-specification:DejaVuSans;writing-mode:lr-tb;fill:#262626;fill-opacity:1;fill-rule:nonzero;stroke:none"
           transform="scale(1,-1)"><tspan
             id="tspan348"
             y="0"
             x="0 8.7983999 20.131201 24.7104 33.523201 38.591999 43.1712 54.259201 63.086399 68.731201 77.558403 85.060799 93.916801">TQ of Dataset</tspan></text>
</g></g></g></svg>